<svg width="472" height="125" viewBox="0 0 472 125" fill="none" xmlns="http://www.w3.org/2000/svg">
<path d="M31.9884 3.93606L57.208 57.2666L58.5645 60.2383L40.8233 48.9939H18.3345L0 60.158L1.54827 57.2666L28.6954 3.93606H31.9884ZM18.3345 48.9939H40.8233L30.0608 26.0233L18.3345 48.9939Z" fill="#1E2D40"/>
<path d="M63.0931 60.2383H73.3737V0.482422H63.0931V60.2383Z" fill="#1E2D40"/>
<path d="M116.746 29.1556L110.882 31.0832C113.56 33.9211 114.898 37.2676 114.898 41.1229C114.898 45.46 113.212 49.1546 109.838 52.2066C106.519 55.2587 102.503 56.7847 97.7907 56.7847C96.6663 56.7847 95.4348 56.6508 94.0961 56.3831C93.293 57.8824 92.6237 59.2745 92.0882 60.5596C94.1229 60.2919 96.1576 60.158 98.1923 60.158C104.511 60.158 109.356 61.2021 112.73 63.2904C116.371 65.5928 118.191 68.8323 118.191 73.0088C118.191 77.2388 116.451 80.4782 112.971 82.7271C109.704 84.8154 104.778 85.8595 98.1923 85.8595C91.6063 85.8595 86.6802 84.8154 83.414 82.7271C79.9336 80.4782 78.1934 77.2388 78.1934 73.0088C78.1934 71.4024 78.5146 69.8764 79.1572 68.4307C80.4422 64.04 83.0927 59.0068 87.1086 53.3311C82.9321 50.1184 80.8438 46.049 80.8438 41.1229C80.8438 36.7857 82.5037 33.0912 85.8235 30.0391C89.1432 26.9871 93.1323 25.461 97.7907 25.461C98.3262 25.461 99.1293 25.5146 100.2 25.6217L116.746 22.4893V29.1556ZM102.931 36.3842C101.539 35.0991 99.8254 34.4566 97.7907 34.4566C95.756 34.4566 94.0426 35.1259 92.6504 36.4645C91.2583 37.8031 90.5622 39.3559 90.5622 41.1229C90.5622 43.0505 91.285 44.6568 92.7308 45.9419C94.23 47.1734 95.9167 47.7892 97.7907 47.7892C99.8254 47.7892 101.539 47.1199 102.931 45.7813C104.377 44.4426 105.1 42.8898 105.1 41.1229C105.1 39.2488 104.377 37.6692 102.931 36.3842ZM88.0724 73.0088C88.0724 75.4718 91.4457 76.7033 98.1923 76.7033C104.939 76.7033 108.312 75.4718 108.312 73.0088C108.312 71.8308 107.402 70.9205 105.581 70.278C103.761 69.6354 101.298 69.3142 98.1923 69.3142C95.0867 69.3142 92.6237 69.6354 90.8031 70.278C88.9826 70.9741 88.0724 71.8843 88.0724 73.0088Z" fill="#1E2D40"/>
<path d="M140.859 24.5775C146.213 24.5775 150.738 26.3713 154.432 29.9588C158.181 33.4927 160.055 37.8031 160.055 42.8898C160.055 47.9766 158.181 52.3137 154.432 55.9012C150.738 59.4352 146.213 61.2021 140.859 61.2021C135.558 61.2021 131.033 59.4352 127.285 55.9012C123.591 52.3137 121.743 47.9766 121.743 42.8898C121.743 37.8031 123.591 33.4927 127.285 29.9588C131.033 26.3713 135.558 24.5775 140.859 24.5775ZM147.365 49.6365C149.078 47.7624 149.935 45.4868 149.935 42.8095C149.935 40.2394 149.078 38.044 147.365 36.2235C145.598 34.3495 143.456 33.4124 140.939 33.4124C138.369 33.4124 136.281 34.3495 134.674 36.2235C132.854 37.9905 131.944 40.2126 131.944 42.8898C131.944 45.5671 132.854 47.816 134.674 49.6365C136.334 51.457 138.423 52.3673 140.939 52.3673C143.402 52.3673 145.544 51.457 147.365 49.6365Z" fill="#1E2D40"/>
<path d="M221.243 54.9374L227.668 48.4317C229.274 50.2522 231.095 51.5641 233.13 52.3673C235.218 53.1704 236.958 53.3578 238.35 52.9295C239.742 52.5011 240.438 51.5641 240.438 50.1184C240.438 49.3152 240.144 48.6459 239.555 48.1105C239.019 47.5215 238.457 47.1199 237.868 46.9057C237.333 46.638 236.503 46.3167 235.378 45.9419C231.47 44.7104 228.578 43.3717 226.704 41.926C224.884 40.4268 223.973 38.1511 223.973 35.0991C223.973 31.9935 225.178 29.4769 227.588 27.5493C229.997 25.5681 232.889 24.5775 236.262 24.5775C239.1 24.5775 241.483 24.8988 243.41 25.5414C245.391 26.1303 247.613 27.1745 250.076 28.6737L245.418 35.9826C243.223 34.4298 241.242 33.3857 239.475 32.8502C237.708 32.3148 236.315 32.288 235.298 32.7699C234.334 33.1982 233.772 34.0282 233.611 35.2597C233.558 35.7416 233.611 36.17 233.772 36.5448C233.986 36.9196 234.361 37.2676 234.897 37.5889C235.486 37.8566 236.021 38.0708 236.503 38.2315C236.985 38.3921 237.708 38.633 238.671 38.9543C239.689 39.2756 240.465 39.5165 241.001 39.6772C243.731 40.4803 245.98 41.7654 247.747 43.5324C249.568 45.2994 250.478 47.575 250.478 50.3593C250.478 53.1972 249.22 55.7138 246.703 57.9091C244.187 60.1045 241.188 61.2021 237.708 61.2021C230.907 61.2021 225.419 59.1139 221.243 54.9374Z" fill="#1E2D40"/>
<path d="M286.159 28.1918L281.501 36.3842C280.215 34.992 278.609 34.1353 276.681 33.814C274.807 33.4927 273.014 33.6534 271.3 34.2959C269.587 34.8849 268.114 35.9558 266.883 37.5086C265.651 39.0614 265.036 40.8819 265.036 42.9702C265.036 44.8442 265.598 46.5577 266.722 48.1105C267.9 49.6097 269.319 50.7341 270.979 51.4838C272.639 52.1799 274.433 52.4208 276.36 52.2066C278.341 51.9389 280.055 51.0822 281.501 49.6365L285.998 57.6682C282.518 60.0242 278.716 61.2021 274.593 61.2021C269.292 61.2021 264.768 59.4084 261.02 55.8209C257.272 52.2334 255.397 47.8963 255.397 42.8095C255.397 37.7763 257.272 33.466 261.02 29.8785C264.768 26.291 269.292 24.4972 274.593 24.4972C278.823 24.4972 282.678 25.7288 286.159 28.1918Z" fill="#1E2D40"/>
<path d="M300.366 25.6217L301.812 29.5572C304.275 26.3445 308.184 24.7382 313.538 24.7382C315.626 24.7382 317.581 25.0595 319.401 25.702L315.466 34.6172C312.574 33.3857 309.844 33.466 307.274 34.8581C304.703 36.1968 303.151 38.285 302.615 41.1229V60.2383H292.576V25.6217H300.366Z" fill="#1E2D40"/>
<path d="M325.44 15.1804H335.801V3.93606H325.44V15.1804ZM325.44 60.2383H335.801V25.6217H325.44V60.2383Z" fill="#1E2D40"/>
<path d="M351.702 25.6217L352.425 29.6375C356.012 26.1571 360.296 24.4169 365.276 24.4169C370.309 24.4169 374.619 26.2107 378.207 29.7982C381.794 33.3857 383.588 37.7228 383.588 42.8095C383.588 47.8963 381.794 52.2334 378.207 55.8209C374.673 59.4084 370.362 61.2021 365.276 61.2021C360.189 61.2021 355.905 59.4619 352.425 55.9815V85.3776H343.028V25.6217H351.702ZM372.986 42.8095C372.986 40.2929 372.103 38.0976 370.336 36.2235C368.622 34.3495 366.507 33.4124 363.991 33.4124C361.42 33.4124 359.279 34.3495 357.565 36.2235C355.798 38.0976 354.915 40.2929 354.915 42.8095C354.915 45.3797 355.798 47.6018 357.565 49.4758C359.279 51.2964 361.42 52.2066 363.991 52.2066C366.507 52.2066 368.622 51.2964 370.336 49.4758C372.103 47.6018 372.986 45.3797 372.986 42.8095Z" fill="#1E2D40"/>
<path d="M407.26 25.6217H415.291V35.0188H407.26V60.2383H397.059V35.0188H389.831V25.6217H397.059V12.7709H407.26V25.6217Z" fill="#1E2D40"/>
<path d="M219.199 75.7729C219.199 75.7729 219.199 84.9575 208.866 84.9575C204.274 84.9575 204.274 83.4268 180.547 68.1191C171.554 61.422 166.715 59.8912 166.77 42.4787C166.715 25.0662 171.554 23.5355 180.547 16.8384C204.274 1.53071 204.274 0 208.866 0C219.199 0 219.199 9.1846 219.199 9.1846V20.2827C219.199 25.6403 205.9 32.736 191.262 42.4787C205.9 52.2214 219.199 59.3172 219.199 64.6748V75.7729Z" fill="#00FFC3"/>
<path d="M219.007 75.7727C219.007 75.7727 219.007 84.9573 208.674 84.9573C204.082 84.9573 204.082 83.4266 180.355 68.1189C180.355 68.1189 176.719 63.7179 176.719 57.2121C176.719 54.8272 177.293 51.9133 180.355 49.5583C185.33 45.7314 191.07 42.4785 191.07 42.4785C205.708 52.2212 219.007 59.317 219.007 64.6747V75.7727Z" fill="url(#paint0_linear_565_61)"/>
<path d="M418.876 9.18511C418.876 9.18511 418.876 0.000511169 429.209 0.000511169C433.801 0.000511169 433.801 1.53123 457.528 16.8389C466.521 23.536 471.36 25.0668 471.305 42.4793C471.36 59.8918 466.521 61.4225 457.528 68.1196C433.801 83.4273 433.801 84.958 429.209 84.958C418.876 84.958 418.876 75.7734 418.876 75.7734V64.6753C418.876 59.3177 432.175 52.222 446.812 42.4793C432.175 32.7366 418.876 25.6408 418.876 20.2832V9.18511Z" fill="#00FFC3"/>
<path d="M419.067 9.1853C419.067 9.1853 419.067 0.000701904 429.4 0.000701904C433.992 0.000701904 433.992 1.53141 457.719 16.8391C457.719 16.8391 461.356 21.2401 461.355 27.7459C461.355 30.1308 460.781 33.0447 457.719 35.3997C452.744 39.2266 447.004 42.4795 447.004 42.4795C432.366 32.7368 419.067 25.641 419.067 20.2834V9.1853Z" fill="url(#paint1_linear_565_61)"/>
<path d="M227.264 106.653C227.264 106.267 227.43 105.942 227.76 105.678C228.091 105.402 228.554 105.264 229.149 105.264C229.678 105.264 230.202 105.369 230.72 105.579C231.238 105.777 231.761 106.069 232.29 106.455L233.382 104.917C232.786 104.443 232.147 104.085 231.464 103.842C230.791 103.589 230.031 103.462 229.182 103.462C228.609 103.462 228.08 103.545 227.595 103.71C227.11 103.865 226.691 104.09 226.338 104.388C225.997 104.686 225.727 105.044 225.528 105.463C225.33 105.871 225.231 106.328 225.231 106.835C225.231 107.375 225.313 107.833 225.479 108.207C225.655 108.582 225.903 108.902 226.223 109.166C226.553 109.431 226.956 109.651 227.43 109.828C227.915 110.004 228.466 110.164 229.083 110.307C229.623 110.439 230.058 110.566 230.389 110.687C230.731 110.809 230.995 110.941 231.183 111.084C231.381 111.217 231.513 111.365 231.58 111.531C231.657 111.696 231.695 111.883 231.695 112.093C231.695 112.545 231.508 112.903 231.133 113.168C230.769 113.432 230.273 113.564 229.645 113.564C228.918 113.564 228.267 113.438 227.694 113.184C227.121 112.92 226.553 112.545 225.991 112.06L224.768 113.515C225.462 114.143 226.217 114.611 227.033 114.92C227.848 115.218 228.703 115.367 229.595 115.367C230.202 115.367 230.758 115.289 231.265 115.135C231.772 114.981 232.208 114.755 232.572 114.457C232.935 114.16 233.216 113.796 233.415 113.366C233.624 112.936 233.729 112.446 233.729 111.894C233.729 111.409 233.646 110.991 233.481 110.638C233.327 110.274 233.095 109.96 232.786 109.695C232.478 109.42 232.087 109.188 231.613 109.001C231.15 108.814 230.615 108.643 230.009 108.488C229.458 108.356 229 108.229 228.636 108.108C228.284 107.987 228.003 107.855 227.793 107.711C227.595 107.568 227.457 107.414 227.38 107.248C227.303 107.083 227.264 106.885 227.264 106.653ZM247.711 109.398C247.711 108.582 247.562 107.811 247.264 107.083C246.967 106.356 246.553 105.722 246.024 105.182C245.495 104.642 244.861 104.217 244.123 103.909C243.384 103.589 242.569 103.429 241.676 103.429C240.783 103.429 239.967 103.589 239.229 103.909C238.49 104.228 237.851 104.664 237.311 105.215C236.771 105.755 236.352 106.389 236.054 107.116C235.757 107.844 235.608 108.615 235.608 109.431C235.608 110.247 235.757 111.018 236.054 111.746C236.352 112.473 236.765 113.107 237.294 113.647C237.823 114.187 238.457 114.617 239.196 114.937C239.934 115.245 240.75 115.4 241.643 115.4C242.536 115.4 243.351 115.24 244.09 114.92C244.828 114.6 245.468 114.171 246.008 113.63C246.548 113.079 246.967 112.44 247.264 111.713C247.562 110.985 247.711 110.213 247.711 109.398ZM245.578 109.431C245.578 109.993 245.479 110.528 245.28 111.035C245.093 111.531 244.828 111.966 244.487 112.341C244.145 112.705 243.732 112.997 243.247 113.217C242.773 113.427 242.249 113.531 241.676 113.531C241.103 113.531 240.574 113.421 240.089 113.201C239.604 112.98 239.185 112.683 238.832 112.308C238.49 111.933 238.22 111.498 238.022 111.002C237.834 110.495 237.741 109.96 237.741 109.398C237.741 108.836 237.834 108.307 238.022 107.811C238.22 107.304 238.49 106.868 238.832 106.504C239.174 106.13 239.582 105.838 240.056 105.628C240.541 105.408 241.07 105.297 241.643 105.297C242.216 105.297 242.745 105.408 243.23 105.628C243.715 105.849 244.128 106.146 244.47 106.521C244.823 106.896 245.093 107.337 245.28 107.844C245.479 108.34 245.578 108.869 245.578 109.431ZM258.782 103.628H250.168V115.201H252.201V110.489H258.038V108.637H252.201V105.479H258.782V103.628ZM265.912 105.512H269.583V103.628H260.191V105.512H263.862V115.201H265.912V105.512ZM275.806 112.209L273.045 103.628H270.846L274.881 115.284H276.633L279.477 106.967L282.321 115.284H284.073L288.108 103.628H285.975L283.214 112.209L280.37 103.594H278.65L275.806 112.209ZM294.694 103.545H292.809L287.717 115.201H289.8L290.991 112.407H296.463L297.637 115.201H299.786L294.694 103.545ZM295.719 110.605H291.735L293.719 105.975L295.719 110.605ZM311.592 115.201L308.467 110.82C308.875 110.709 309.244 110.555 309.575 110.357C309.917 110.147 310.209 109.899 310.451 109.613C310.694 109.315 310.881 108.979 311.014 108.604C311.157 108.218 311.229 107.783 311.229 107.298C311.229 106.736 311.129 106.229 310.931 105.777C310.733 105.314 310.446 104.928 310.071 104.62C309.707 104.3 309.255 104.057 308.715 103.892C308.186 103.716 307.591 103.628 306.93 103.628H301.771V115.201H303.805V111.167H306.351L309.195 115.201H311.592ZM309.162 107.414C309.162 108.009 308.947 108.483 308.517 108.836C308.087 109.188 307.508 109.365 306.781 109.365H303.805V105.479H306.764C307.525 105.479 308.115 105.645 308.534 105.975C308.952 106.295 309.162 106.774 309.162 107.414ZM322.3 103.628H313.719V115.201H322.383V113.382H315.753V110.274H321.556V108.455H315.753V105.446H322.3V103.628ZM338.714 107.513C338.714 106.918 338.609 106.383 338.4 105.909C338.201 105.435 337.909 105.027 337.524 104.686C337.149 104.344 336.686 104.085 336.135 103.909C335.595 103.721 334.988 103.628 334.316 103.628H329.753V115.201H331.786V111.481H334.085C334.724 111.481 335.325 111.398 335.887 111.233C336.449 111.057 336.939 110.803 337.358 110.473C337.777 110.142 338.108 109.728 338.35 109.232C338.593 108.736 338.714 108.163 338.714 107.513ZM336.647 107.563C336.647 108.191 336.421 108.698 335.969 109.084C335.528 109.458 334.922 109.646 334.151 109.646H331.786V105.479H334.151C334.911 105.479 335.517 105.656 335.969 106.008C336.421 106.35 336.647 106.868 336.647 107.563ZM345.38 112.523L341.892 103.628H339.643L344.455 115.284H346.24L351.052 103.628H348.853L345.38 112.523ZM357.93 105.512H361.6V103.628H352.209V105.512H355.879V115.201H357.93V105.512ZM363.945 115.201V112.936H361.746V115.201H363.945ZM371.507 115.201H379.625V113.349H373.541V103.628H371.507V115.201ZM384.991 105.512H388.661V103.628H379.27V105.512H382.941V115.201H384.991V105.512ZM401.284 109.398C401.284 108.582 401.135 107.822 400.837 107.116C400.54 106.411 400.115 105.799 399.564 105.281C399.024 104.763 398.374 104.361 397.613 104.074C396.864 103.776 396.037 103.628 395.133 103.628H390.818V115.201H395.133C396.037 115.201 396.864 115.052 397.613 114.755C398.374 114.457 399.024 114.049 399.564 113.531C400.115 113.013 400.54 112.401 400.837 111.696C401.135 110.98 401.284 110.213 401.284 109.398ZM399.151 109.431C399.151 110.004 399.052 110.533 398.853 111.018C398.666 111.492 398.396 111.905 398.043 112.258C397.701 112.6 397.283 112.87 396.787 113.068C396.291 113.256 395.739 113.349 395.133 113.349H392.851V105.479H395.133C395.739 105.479 396.291 105.579 396.787 105.777C397.283 105.975 397.701 106.251 398.043 106.604C398.396 106.956 398.666 107.375 398.853 107.86C399.052 108.334 399.151 108.858 399.151 109.431ZM404.924 115.201V112.936H402.725V115.201H404.924Z" fill="#1E2D40"/>
<defs>
<linearGradient id="paint0_linear_565_61" x1="179.78" y1="50.515" x2="219.198" y2="76.5381" gradientUnits="userSpaceOnUse">
<stop stop-color="#0ED6A8"/>
<stop offset="1" stop-color="#00FFC3"/>
</linearGradient>
<linearGradient id="paint1_linear_565_61" x1="458.294" y1="34.443" x2="418.877" y2="8.41994" gradientUnits="userSpaceOnUse">
<stop stop-color="#0ED6A8"/>
<stop offset="1" stop-color="#00FFC3"/>
</linearGradient>
</defs>
</svg>
